<svg id="c8a30e8a-13c6-4ef2-ac6e-253bb11d8cce" data-name="Calque 1" xmlns="http://www.w3.org/2000/svg" width="159.24" height="39.06" viewBox="0 0 159.24 39.06"><title>creamNG-logo</title><rect x="0.1" y="14.17" width="24.49" height="5.42" rx="2.71" ry="2.71" style="fill:#d769a8"/><rect x="3.52" y="7.08" width="17.63" height="5.42" rx="2.71" ry="2.71" style="fill:#45abbc"/><path d="M15.92,5.89h-3.4A2.72,2.72,0,0,1,9.81,3.18h0c4.41-2,3.31-1.42,6.11-2.71h0a2.72,2.72,0,0,1,2.71,2.71h0A2.72,2.72,0,0,1,15.92,5.89Z" transform="translate(-1.88 -0.47)" style="fill:#ed9c21"/><path d="M24.68,22.11H3.76A1.89,1.89,0,0,0,1.88,24L4.14,37.32A1.89,1.89,0,0,0,6,39.2H22.42a1.89,1.89,0,0,0,1.88-1.88L26.56,24A1.89,1.89,0,0,0,24.68,22.11ZM17.75,30c-1.39,0-1.66-.58-1.66-.58a1.92,1.92,0,0,0-1.81-1.1A2.07,2.07,0,0,0,12.7,29a2.37,2.37,0,0,0-.62,1.69,2.28,2.28,0,0,0,.61,1.63,2,2,0,0,0,1.55.64,2,2,0,0,0,1.51-.57,2.22,2.22,0,0,0,.39-.52s.18-.54,1.57-.54,1.65.54,1.65.54a5.49,5.49,0,0,1-1.5,2.73A4.94,4.94,0,0,1,14.28,36a5.12,5.12,0,0,1-3.76-1.51A5.06,5.06,0,0,1,9,30.72a5.11,5.11,0,0,1,1.54-3.78,5.19,5.19,0,0,1,3.8-1.53,5,5,0,0,1,3.71,1.5,5.65,5.65,0,0,1,1.37,2.56A2.11,2.11,0,0,1,17.75,30Z" transform="translate(-1.88 -0.47)" style="fill:#6cbe45"/><path d="M48.51,25.61A5,5,0,0,0,46.13,25a4.66,4.66,0,0,0-2.47.68,4.8,4.8,0,0,0-1.75,1.87,5.8,5.8,0,0,0,0,5.29,4.79,4.79,0,0,0,1.75,1.87,4.65,4.65,0,0,0,2.47.68,5.43,5.43,0,0,0,2.3-.56,7.28,7.28,0,0,0,2.15-1.53l2.74,2.94a10.94,10.94,0,0,1-3.46,2.44,9.63,9.63,0,0,1-8.78-.32A9,9,0,0,1,37.69,35a9.32,9.32,0,0,1-1.23-4.76,8.94,8.94,0,0,1,4.69-8A10.2,10.2,0,0,1,50,21.82a9.77,9.77,0,0,1,3.3,2.26l-2.71,3.27A6.68,6.68,0,0,0,48.51,25.61Z" transform="translate(-1.88 -0.47)" style="fill:#45abbc"/><path d="M61.71,25.83a5.2,5.2,0,0,1,2.6-.64v4.17q-.23,0-.69,0a4.22,4.22,0,0,0-2.61.75,2.89,2.89,0,0,0-1.15,2.06V39.2H55.31V25.36h4.55v2.3A5,5,0,0,1,61.71,25.83Z" transform="translate(-1.88 -0.47)" style="fill:#45abbc"/><path d="M76.43,34.24,79,36.54a7.93,7.93,0,0,1-6.34,2.81,8.43,8.43,0,0,1-3.91-.87A6.33,6.33,0,0,1,66.11,36a7.12,7.12,0,0,1-.93-3.68,7.55,7.55,0,0,1,.9-3.73,6.26,6.26,0,0,1,2.54-2.51,7.89,7.89,0,0,1,3.82-.9A7.67,7.67,0,0,1,76,26a5.9,5.9,0,0,1,2.42,2.29,7.18,7.18,0,0,1,.92,3.5L70.11,34a3.11,3.11,0,0,0,1.13,1.39,3,3,0,0,0,1.74.5A4.64,4.64,0,0,0,76.43,34.24Zm-5.82-5a3.6,3.6,0,0,0-.86,2.29l5.14-1.28a2.54,2.54,0,0,0-.84-1.35,2.29,2.29,0,0,0-1.46-.46A2.59,2.59,0,0,0,70.61,29.24Z" transform="translate(-1.88 -0.47)" style="fill:#45abbc"/><path d="M95.48,25.36V39.2H90.93V37.46a4.87,4.87,0,0,1-1.75,1.42,5.27,5.27,0,0,1-2.31.5,6.32,6.32,0,0,1-3.38-.89A6,6,0,0,1,81.22,36a8.33,8.33,0,0,1-.81-3.75,8.14,8.14,0,0,1,.79-3.68,5.82,5.82,0,0,1,2.25-2.46,6.47,6.47,0,0,1,3.38-.87,5.24,5.24,0,0,1,2.33.51,5,5,0,0,1,1.76,1.43V25.36ZM90,35a3.49,3.49,0,0,0,.92-2.17v-.92A3.48,3.48,0,0,0,90,29.71a2.69,2.69,0,0,0-2-.82,2.72,2.72,0,0,0-2.16,1A3.67,3.67,0,0,0,85,32.35a3.67,3.67,0,0,0,.83,2.49,2.72,2.72,0,0,0,2.16,1A2.69,2.69,0,0,0,90,35Z" transform="translate(-1.88 -0.47)" style="fill:#45abbc"/><path d="M121,26.62a5.39,5.39,0,0,1,1.36,3.86V39.2h-4.55V31.78a2.66,2.66,0,0,0-.61-1.85,2.13,2.13,0,0,0-1.66-.68,2.41,2.41,0,0,0-1.91.88,3.41,3.41,0,0,0-.7,2.24V39.2h-4.55V31.78a2.66,2.66,0,0,0-.61-1.85,2.13,2.13,0,0,0-1.66-.68,2.44,2.44,0,0,0-1.92.88,3.37,3.37,0,0,0-.72,2.24V39.2H99V25.36h4.53v2.28a4.89,4.89,0,0,1,1.85-1.83,5.41,5.41,0,0,1,2.65-.63,5,5,0,0,1,2.89.82,4.45,4.45,0,0,1,1.71,2.28,5,5,0,0,1,1.9-2.31,5.38,5.38,0,0,1,2.93-.78A4.73,4.73,0,0,1,121,26.62Z" transform="translate(-1.88 -0.47)" style="fill:#45abbc"/><path d="M138.94,21.81a5.58,5.58,0,0,1,2.16,2.3,7.42,7.42,0,0,1,.77,3.45V39.2h-4.76V28.69a3.52,3.52,0,0,0-.87-2.48,3,3,0,0,0-2.3-.95,3.58,3.58,0,0,0-2.72,1.13,4,4,0,0,0-1.06,2.84v10h-4.68V21.27h4.68v2.61a6.32,6.32,0,0,1,2.37-2.14,6.88,6.88,0,0,1,3.23-.75A6.17,6.17,0,0,1,138.94,21.81Z" transform="translate(-1.88 -0.47)" style="fill:#45abbc"/><path d="M156.87,29.89h4V39.2h-3.45V38a9,9,0,0,1-2.19,1.13,7,7,0,0,1-2.34.41,9,9,0,0,1-4.63-1.21A8.75,8.75,0,0,1,145,35a9.56,9.56,0,0,1-1.19-4.76,8.94,8.94,0,0,1,4.79-8,10.45,10.45,0,0,1,5-1.2,11.72,11.72,0,0,1,4,.73,10.65,10.65,0,0,1,3.41,2L158.46,27a7.51,7.51,0,0,0-2.22-1.46,6.33,6.33,0,0,0-2.51-.54,5,5,0,0,0-4.4,2.58,5.45,5.45,0,0,0-.66,2.68,5.85,5.85,0,0,0,.63,2.72A4.79,4.79,0,0,0,151,34.85a4.52,4.52,0,0,0,2.45.69,4.33,4.33,0,0,0,1.87-.42A4.74,4.74,0,0,0,156.87,34Z" transform="translate(-1.88 -0.47)" style="fill:#45abbc"/></svg>