<svg id="fd7bdfa8-8fff-4afb-a22a-d627e53e3586" data-name="Layer 1" xmlns="http://www.w3.org/2000/svg" width="231mm" height="93mm" viewBox="0 0 654.8 263.62"><title>worldline-white</title><rect width="654.8" height="263.62" style="fill:none"/><path d="M282.29,1.76h-9.53V25.9c-3.83-3.37-8.39-5.38-16.41-5.38-13.42,0-26.85,8.85-26.85,33.54,0,7.62,1.49,13.88,4.06,18.69a22.36,22.36,0,0,1-6,.94c-5.39,0-8-1.79-8-8V49.62h0v-38c0-8.39-1-9.81-6.82-9.81h-9.42v66c0,14.12,6.78,17.58,15.88,17.58a40.33,40.33,0,0,0,19.78-5.67,23.27,23.27,0,0,0,15.73,5.67,24.07,24.07,0,0,0,18.45-8c0.72,5.86,2.28,7.19,5,7.19h11V11.57c0-8.25-1-9.81-6.83-9.81m-9.53,65.84c-4.43,3.71-7.9,5.53-13,5.53-8.4,0-12.47-5.53-12.47-19.9,0-15.69,7.32-19.29,14.5-19.29,4.79,0,8.27,1.08,11,3.12V67.61Z" transform="translate(83.56 61.48)" style="fill:#fff"/><path d="M176.48,29.15c-0.6-6.24-2.4-7.08-5.38-7.08H160.17V84.52h16.56V39.09c3.35-1.8,9.46-3.71,18.09-3.71h3V21.6A13.2,13.2,0,0,0,194,21c-7.79,0-13.53,4-17.5,8.16" transform="translate(83.56 61.48)" style="fill:#fff"/><path d="M339.68,18.59a9.31,9.31,0,0,0,9.47-9.23A9.4,9.4,0,0,0,339.68,0a9.49,9.49,0,0,0-9.59,9.35,9.41,9.41,0,0,0,9.59,9.23" transform="translate(83.56 61.48)" style="fill:#fff"/><path d="M123.14,86.07h0a32.73,32.73,0,0,0,12.73-62.88h0a32.51,32.51,0,0,0-12.73-2.59,33.23,33.23,0,0,0-3.42.2,32.69,32.69,0,0,0,13.69,49.42,17.71,17.71,0,0,1-10.27,3.28c-10.42,0-18.88-9-18.88-20.15a20.84,20.84,0,0,1,4.19-12.65c0-5.12,1.81-14.41,4.54-18.46a32.72,32.72,0,0,0,10.15,63.83m4.12-46a21.3,21.3,0,0,1,.9-6.14c8,2.33,13.88,10.13,13.88,19.4a21.47,21.47,0,0,1-.9,6.17c-8-2.36-13.87-10.14-13.87-19.43" transform="translate(83.56 61.48)" style="fill:#fff"/><path d="M487.68,51.77c0-20.74-9.82-30.89-28.28-30.89-17.49,0-30.68,12.45-30.68,32.68,0,7.61,1.66,14.06,4.87,19.16a23.52,23.52,0,0,1-7,1.2c-4.7,0-7.26-1.37-7.84-5.81V38c0-14.14-7.78-17.61-16.89-17.61-8.4,0-15.89,3.55-21.77,7.87-0.71-5.42-2.4-6.11-5.39-6.11H363.84V70.51A24.46,24.46,0,0,1,356,72c-5.32,0-7.9-1.78-8-7.82V33.57c0-9.58-.84-11.5-6.59-11.5h-9.69V72.36a25.48,25.48,0,0,1-8.09,1.55c-5.38,0-8-1.78-8-8l0-54.33c0-8.39-1-9.81-6.85-9.81h-9.42V68c0,14.09,6.79,17.57,15.89,17.57a40.26,40.26,0,0,0,20.38-6c2.86,3.08,7.07,4.09,11.93,4.09a39.45,39.45,0,0,0,16.19-3.76v4.64h16.5V37.45a41.68,41.68,0,0,1,14.26-2.88c5.4,0,7.79,1.81,7.79,8v7.22h0V68c0,14.09,6.79,17.57,15.86,17.57a40.29,40.29,0,0,0,21.09-6.47c5.24,4.19,12.4,6.47,21.3,6.47,12.57,0,19.64-3.24,24.67-6.12V67.94h-5.39a27.47,27.47,0,0,1-16.66,5.27c-9.7,0-15.7-3.47-16.54-16.06h40.75c0-.59.24-3.23,0.24-5.39m-40.74-5.15c1.32-11.73,6.34-14.75,12.45-14.75,6.84,0,10.67,3.61,11,14.75H446.94Z" transform="translate(83.56 61.48)" style="fill:#fff"/><path d="M6.67,35.41L20.76,84.78H34.6L46.49,44.5,58.26,84.78H72.09L86.41,35.54a3.32,3.32,0,0,1,3.28-2.69h3.62V22.14H66.66V32.85H71c0.85,0,2,.08,2.39.65s0.57,1.47-.17,4.06l-7,25.58-11.86-41H41.51l-11.84,41L21.41,32.85h6.38V22.14H0V32.85H3.87a3.27,3.27,0,0,1,2.8,2.56" transform="translate(83.56 61.48)" style="fill:#fff"/><path d="M9.42,117.28c-2.12,0-3.76-1-3.76-3.52s2.09-3.43,4.89-3.43a18.26,18.26,0,0,1,4.07.48v3.89a6.19,6.19,0,0,1-5.19,2.58m1.37-15a11.26,11.26,0,0,0-5.62,1.37v1.25H5.81a7.77,7.77,0,0,1,4.92-1.4c2.31,0,3.89.88,3.89,3.34v2.85a16.48,16.48,0,0,0-4.16-.48c-3.7,0-6.35,1.46-6.35,4.64,0,3,2.16,4.58,5.1,4.58a6.74,6.74,0,0,0,5.4-2.31v0.61c0,1.28.21,1.55,1.09,1.55h0.42V106.77c0-3.28-2.12-4.46-5.34-4.46" transform="translate(83.56 61.48)" style="fill:#fff"/><path d="M28.24,102.31a11.25,11.25,0,0,0-7,2.7v-0.94c0-1.4-.15-1.58-0.82-1.58h-0.7v15.81h1.52V106.26c1.79-1.37,4-2.67,6.37-2.67,1.79,0,3.16.61,3.16,3.13v11.59h1.52V106.53c0-3.31-1.88-4.22-4.1-4.22" transform="translate(83.56 61.48)" style="fill:#fff"/><path d="M46.67,117.28c-2.12,0-3.76-1-3.76-3.52s2.09-3.43,4.89-3.43a18.28,18.28,0,0,1,4.07.48v3.89a6.19,6.19,0,0,1-5.19,2.58m1.37-15a11.25,11.25,0,0,0-5.62,1.37v1.25h0.64a7.78,7.78,0,0,1,4.92-1.4c2.31,0,3.89.88,3.89,3.34v2.85a16.5,16.5,0,0,0-4.16-.48c-3.7,0-6.34,1.46-6.34,4.64,0,3,2.15,4.58,5.1,4.58a6.74,6.74,0,0,0,5.4-2.31v0.61c0,1.28.21,1.55,1.09,1.55h0.42V106.77c0-3.28-2.12-4.46-5.34-4.46" transform="translate(83.56 61.48)" style="fill:#fff"/><path d="M58.81,98.09H57.3v4.4H55.2v1.15h2.1v11.23c0,2.52,1.31,3.55,3.73,3.55a14.39,14.39,0,0,0,2.34-.18v-1.06H61.55c-1.85,0-2.73-.58-2.73-2.49V103.65H63v-1.15H58.81v-4.4" transform="translate(83.56 61.48)" style="fill:#fff"/><path d="M71.6,117.25c-3.58,0-5.8-2.52-5.8-6.86s2.22-6.89,5.8-6.89,5.83,2.58,5.83,6.89-2.22,6.86-5.83,6.86m0-14.93c-4.37,0-7.35,3.1-7.35,8.07s3,8,7.35,8,7.38-3,7.38-8-2.94-8.07-7.38-8.07" transform="translate(83.56 61.48)" style="fill:#fff"/><path d="M85.9,102.31c-3.16,0-5.31,1.45-5.31,4.19s1.91,3.73,4.95,4.22c3.22,0.52,4.25,1.28,4.25,3.13,0,2.19-1.4,3.4-4.31,3.4A6.33,6.33,0,0,1,81,115.7H80.43v1.25a8.08,8.08,0,0,0,5.1,1.49c3.95,0,5.74-1.79,5.74-4.71s-1.82-3.79-5.13-4.31c-3.07-.52-4.13-1.22-4.13-3s1.34-2.88,3.91-2.88a5.64,5.64,0,0,1,3.95,1.24h0.61v-1.24a8,8,0,0,0-4.58-1.18" transform="translate(83.56 61.48)" style="fill:#fff"/><path d="M106.93,102.31c-4.4,0-7.5,3-7.5,8s2.76,8.07,7.41,8.07a7.45,7.45,0,0,0,5.31-1.88v-1.15h-0.7a5.76,5.76,0,0,1-4.55,1.82c-3.7,0-5.92-2.52-5.92-6.86s2.4-6.83,5.92-6.83a5.52,5.52,0,0,1,4.19,1.52h0.79v-1.21a7.41,7.41,0,0,0-4.95-1.52" transform="translate(83.56 61.48)" style="fill:#fff"/><path d="M120.75,117.25c-3.58,0-5.8-2.52-5.8-6.86s2.22-6.89,5.8-6.89,5.83,2.58,5.83,6.89-2.22,6.86-5.83,6.86m0-14.93c-4.37,0-7.35,3.1-7.35,8.07s3,8,7.35,8,7.38-3,7.38-8-2.94-8.07-7.38-8.07" transform="translate(83.56 61.48)" style="fill:#fff"/><path d="M148.68,102.31a10,10,0,0,0-6.37,2.61,3.52,3.52,0,0,0-3.76-2.61,10.28,10.28,0,0,0-6.32,2.58v-0.82c0-1.4-.15-1.58-0.82-1.58h-0.7v15.81h1.52V106.17c1.64-1.37,3.46-2.58,5.77-2.58,1.7,0,2.91.67,2.91,3v11.72h1.52V106.13c1.64-1.3,3.46-2.55,5.71-2.55,1.82,0,2.94.67,2.94,3v11.72h1.52V106.2c0-2.82-1.76-3.89-3.92-3.89" transform="translate(83.56 61.48)" style="fill:#fff"/><path d="M162.74,117.13a6.23,6.23,0,0,1-5-2.09V106.8c1.37-1.64,3.22-3.25,5.77-3.25,2.22,0,4.76,1.33,4.76,6.74s-2.91,6.83-5.52,6.83m1-14.81a7.87,7.87,0,0,0-6,3v-1.24c0-1.4-.15-1.58-0.82-1.58h-0.7v20.73h1.52v-6.74a7.33,7.33,0,0,0,5.28,1.85c3.28,0,6.8-1.94,6.8-8.2,0-6-3.07-7.83-6.07-7.83" transform="translate(83.56 61.48)" style="fill:#fff"/><path d="M176.43,117.28c-2.13,0-3.77-1-3.77-3.52s2.09-3.43,4.89-3.43a18.27,18.27,0,0,1,4.07.48v3.89a6.19,6.19,0,0,1-5.19,2.58m1.36-15a11.26,11.26,0,0,0-5.62,1.37v1.25h0.64a7.78,7.78,0,0,1,4.92-1.4c2.31,0,3.89.88,3.89,3.34v2.85a16.49,16.49,0,0,0-4.16-.48c-3.71,0-6.35,1.46-6.35,4.64,0,3,2.16,4.58,5.1,4.58a6.75,6.75,0,0,0,5.4-2.31v0.61c0,1.28.21,1.55,1.09,1.55h0.42V106.77c0-3.28-2.12-4.46-5.34-4.46" transform="translate(83.56 61.48)" style="fill:#fff"/><path d="M195.25,102.31a11.25,11.25,0,0,0-7,2.7v-0.94c0-1.4-.15-1.58-0.82-1.58h-0.7v15.81h1.52V106.26c1.79-1.37,4-2.67,6.37-2.67,1.79,0,3.16.61,3.16,3.13v11.59h1.52V106.53c0-3.31-1.88-4.22-4.1-4.22" transform="translate(83.56 61.48)" style="fill:#fff"/><polygon points="298.88 163.97 297.51 163.97 292.17 176.9 292.14 176.9 286.49 163.97 285.1 163.97 285.1 164.43 291.41 178.69 289.01 184.22 289.01 184.71 290.35 184.71 298.88 164.43 298.88 163.97" style="fill:#fff"/></svg>